# xmcd
#
# Track frame offsets: 
#        150
#        11912
#        25487
#        45662
#        64637
#        84962
#        103037
#        114587
#        126587
#        142337
#        168587
#
# Disc length: 2564 seconds
#
# Revision: 0
# Processed by: cddbd v1.5.1PL2 Copyright (c) Steve Scherf et al.
# Submitted via: ExactAudioCopy v0.95a5
#
DISCID=9e0a020b
DTITLE=Gilbert Paeffgen and Joe McHugh - Offshore
DYEAR=1996
DGENRE=Country
TTITLE0=Dayflower
TTITLE1=Lizzie's Garden
TTITLE2=Bastin Ar Soner
TTITLE3=Pavan
TTITLE4=Donal's Roll/Andy's Arrival
TTITLE5=Stars Of County Down/Butterfly
TTITLE6=The New Finger
TTITLE7=Farewell, Farewell
TTITLE8=Berner Jodel
TTITLE9=Variations On The Tyne
TTITLE10=Offshore
EXTD=
EXTT0=
EXTT1=
EXTT2=
EXTT3=
EXTT4=
EXTT5=
EXTT6=
EXTT7=
EXTT8=
EXTT9=
EXTT10=
PLAYORDER=
